<?xml version="1.0" standalone="no"?>
<!DOCTYPE svg PUBLIC "-//W3C//DTD SVG 20010904//EN"
 "http://www.w3.org/TR/2001/REC-SVG-20010904/DTD/svg10.dtd">
<svg version="1.0" xmlns="http://www.w3.org/2000/svg"
 width="60.000000pt" height="50.000000pt" viewBox="0 0 60.000000 50.000000"
 preserveAspectRatio="xMidYMid meet">

<g transform="translate(0.000000,50.000000) scale(0.100000,-0.100000)"
fill="#000000" stroke="none">
<path d="M0 250 l0 -250 300 0 300 0 0 250 0 250 -300 0 -300 0 0 -250z m143
148 c-38 -42 -53 -85 -53 -151 0 -53 5 -71 30 -110 16 -26 27 -47 25 -47 -3 0
-19 21 -35 47 -50 79 -40 192 23 261 11 12 23 22 25 22 3 0 -4 -10 -15 -22z
m154 -120 c-2 -13 -4 -3 -4 22 0 25 2 35 4 23 2 -13 2 -33 0 -45z m153 25 c-1
-5 -12 -21 -26 -38 -26 -30 -23 -21 6 23 16 23 20 27 20 15z m-248 -70 c-3
-16 -7 -22 -10 -15 -4 13 4 42 11 42 2 0 2 -12 -1 -27z m213 -37 c-9 -19 -24
-41 -33 -48 -11 -9 -9 -3 5 17 11 17 24 40 28 53 4 13 9 21 12 19 2 -3 -3 -21
-12 -41z"/>
</g>
</svg>
